# xmcd
#
# Track frame offsets: 
#        150
#        13701
#        30989
#        48846
#        73004
#        89049
#        106190
#        117898
#        128652
#        140357
#        151731
#
# Disc length: 2297 seconds
#
# Revision: 0
# Processed by: cddbd v1.5.2PL0 Copyright (c) Steve Scherf et al.
# Submitted via: ExactAudioCopy v1.2
#
DISCID=8408f70b
DTITLE=Curtis Lawson - Legend In My Own Time
DYEAR=2004
DGENRE=Blues
TTITLE0=Legend In My Own Time
TTITLE1=Time to Hold You
TTITLE2=Love Without a Shadow of a Doubt
TTITLE3=Deep Within Me
TTITLE4=Party On Me
TTITLE5=Blues At the Disco
TTITLE6=Don't Bother to Call
TTITLE7=California Blues
TTITLE8=Is That a Love Song?
TTITLE9=Feel for You (But I Can't Reach You)
TTITLE10=San Francisco, My Town
EXTD=
EXTT0=
EXTT1=
EXTT2=
EXTT3=
EXTT4=
EXTT5=
EXTT6=
EXTT7=
EXTT8=
EXTT9=
EXTT10=
PLAYORDER=
